<?xml version="1.0" encoding="UTF-8" standalone="no"?>
<!-- Created with Inkscape (http://www.inkscape.org/) -->

<svg
   width="35.313858"
   height="34.190674"
   viewBox="0 0 9.3434581 9.0462824"
   version="1.1"
   id="svg1"
   xmlns="http://www.w3.org/2000/svg"
   xmlns:svg="http://www.w3.org/2000/svg">
  <defs
     id="defs1" />
  <g
     id="layer1"
     transform="translate(-32.760792,-36.722149)">
    <g
       id="g10"
       transform="matrix(0.05657855,0,0,0.04050504,30.912409,35.217438)">
      <g
         id="g8"
         style="stroke-width:1.32292;stroke-dasharray:none">
        <path
           id="path8"
           style="fill:none;fill-opacity:0.996078;stroke:#000000;stroke-width:1.32292;stroke-linecap:round;stroke-linejoin:round;stroke-dasharray:none"
           d="m 67.886045,87.482755 c 0.08667,-29.444352 16.705901,-49.672572 38.185375,-49.67257 15.39275,-10e-7 28.70238,12.246172 35.04298,30.029889" />
        <path
           id="path7"
           style="fill:none;fill-opacity:0.996078;stroke:#000000;stroke-width:1.32292;stroke-linecap:round;stroke-linejoin:round;stroke-dasharray:none"
           d="m 67.886043,87.483291 2e-6,-5.36e-4" />
        <path
           id="path5-8"
           style="fill:none;fill-opacity:0.996078;stroke:#000000;stroke-width:1.32292;stroke-linecap:round;stroke-linejoin:round;stroke-dasharray:none"
           d="m 123.89382,89.132422 a 38.993877,53.540817 0 0 1 34.26147,-27.975592 38.993877,53.540817 0 0 1 38.99388,53.54082 v 0 a 38.993877,53.540817 0 0 1 -18.27775,45.36004" />
        <path
           id="path6"
           style="fill:none;fill-opacity:0.996078;stroke:#000000;stroke-width:1.32292;stroke-linecap:round;stroke-linejoin:round;stroke-dasharray:none"
           d="M 67.134506,192.38659 A 38.993877,53.540817 10.477275 0 1 63.165494,191.9376 38.993877,53.540817 10.477275 0 1 34.557914,132.19861 38.993877,53.540817 10.477275 0 1 82.637811,86.641335 38.993877,53.540817 10.477275 0 1 97.259226,93.958648" />
      </g>
      <path
         id="rect8"
         style="fill:#1a1a1a;fill-opacity:0.996078;stroke:#000000;stroke-width:1.32292;stroke-linecap:round;stroke-linejoin:round"
         d="m 120.30122,147.4897 -14.54692,46.87363 10.50583,-10.10223 h 0.80821 v 75.56335 h 6.86935 v -73.29062 l 8.8899,5.00073 z" />
    </g>
  </g>
</svg>
